<!-- Generator: Adobe Illustrator 26.3.1, SVG Export Plug-In . SVG Version: 6.00 Build 0)  -->
<svg version="1.1" id="Layer_1" xmlns="http://www.w3.org/2000/svg" xmlns:xlink="http://www.w3.org/1999/xlink" x="0px" y="0px"
	 viewBox="0 0 1920 1080" style="enable-background:new 0 0 1920 1080;" xml:space="preserve">
<style type="text/css">
	.st0{fill:#91A2BE;}
	.st1{fill:#102A3D;}
	.st2{fill:#242930;}
	.st3{fill:#BDCCD4;}
</style>
<g id="frontBox">
	<rect x="0.5" y="0.5" class="st0" width="1919" height="289"/>
	<path class="st1" d="M1919,1v288H1V1H1919 M1920,0H0v290h1920V0L1920,0z"/>
</g>
<g id="midBox">
	<rect x="32.5" y="19.5" class="st1" width="1869" height="254"/>
	<path class="st2" d="M1901,20v253H33V20H1901 M1902,19H32v255h1870V19L1902,19z"/>
</g>
<g id="backBox">
	<rect x="60.5" y="36.5" class="st2" width="1817" height="221"/>
	<path class="st1" d="M1877,37v220H61V37H1877 M1878,36H60v222h1818V36L1878,36z"/>
</g>
<g>
	<circle class="st2" cx="41.5" cy="50.5" r="4"/>
	<path class="st1" d="M41.5,47c1.9,0,3.5,1.6,3.5,3.5S43.4,54,41.5,54S38,52.4,38,50.5S39.6,47,41.5,47 M41.5,46
		C39,46,37,48,37,50.5s2,4.5,4.5,4.5s4.5-2,4.5-4.5S44,46,41.5,46L41.5,46z"/>
</g>
<g>
	<ellipse class="st3" cx="42.5" cy="75" rx="4" ry="10.5"/>
	<path d="M42.5,65C44,65,46,68.8,46,75s-2,10-3.5,10S39,81.2,39,75S41,65,42.5,65 M42.5,64C40,64,38,68.9,38,75s2,11,4.5,11
		S47,81.1,47,75S45,64,42.5,64L42.5,64z"/>
</g>
<g>
	<ellipse class="st3" cx="42.5" cy="106" rx="4" ry="10.5"/>
	<path d="M42.5,96c1.5,0,3.5,3.8,3.5,10s-2,10-3.5,10s-3.5-3.8-3.5-10S41,96,42.5,96 M42.5,95C40,95,38,99.9,38,106s2,11,4.5,11
		s4.5-4.9,4.5-11S45,95,42.5,95L42.5,95z"/>
</g>
<g>
	<ellipse class="st3" cx="42.5" cy="44" rx="4" ry="10.5"/>
	<path d="M42.5,34C44,34,46,37.8,46,44s-2,10-3.5,10S39,50.2,39,44S41,34,42.5,34 M42.5,33C40,33,38,37.9,38,44s2,11,4.5,11
		S47,50.1,47,44S45,33,42.5,33L42.5,33z"/>
</g>
<g>
	<ellipse class="st3" cx="109.5" cy="265.5" rx="26" ry="20"/>
	<path d="M109.5,246c14.1,0,25.5,8.7,25.5,19.5S123.6,285,109.5,285S84,276.3,84,265.5S95.4,246,109.5,246 M109.5,245
		c-14.6,0-26.5,9.2-26.5,20.5S94.9,286,109.5,286s26.5-9.2,26.5-20.5S124.1,245,109.5,245L109.5,245z"/>
</g>
<g>
	<ellipse class="st3" cx="162.5" cy="265.5" rx="26" ry="20"/>
	<path d="M162.5,246c14.1,0,25.5,8.7,25.5,19.5c0,10.8-11.4,19.5-25.5,19.5s-25.5-8.7-25.5-19.5C137,254.7,148.4,246,162.5,246
		 M162.5,245c-14.6,0-26.5,9.2-26.5,20.5s11.9,20.5,26.5,20.5s26.5-9.2,26.5-20.5S177.1,245,162.5,245L162.5,245z"/>
</g>
<g>
	<ellipse class="st3" cx="214.5" cy="265.5" rx="26" ry="20"/>
	<path d="M214.5,246c14.1,0,25.5,8.7,25.5,19.5S228.6,285,214.5,285s-25.5-8.7-25.5-19.5S200.4,246,214.5,246 M214.5,245
		c-14.6,0-26.5,9.2-26.5,20.5s11.9,20.5,26.5,20.5s26.5-9.2,26.5-20.5S229.1,245,214.5,245L214.5,245z"/>
</g>
<g id="toprightdials">
	<g>
		<ellipse class="st3" cx="1835" cy="28.5" rx="10.5" ry="4"/>
		<path d="M1835,25c6.2,0,10,2,10,3.5s-3.8,3.5-10,3.5s-10-2-10-3.5S1828.8,25,1835,25 M1835,24c-6.1,0-11,2-11,4.5s4.9,4.5,11,4.5
			s11-2,11-4.5S1841.1,24,1835,24L1835,24z"/>
	</g>
	<g>
		<path class="st3" d="M1866,32.5c-6.3,0-10.5-2.1-10.5-4c0-1.7,3.4-3.4,7.9-3.9c0.9-0.1,1.8-0.1,2.6-0.1c2.6,0,5.1,0.4,7.1,1.1
			c1.2,0.4,2.2,1,2.8,1.6c0.4,0.4,0.6,0.9,0.6,1.3C1876.5,30.4,1872.3,32.5,1866,32.5z"/>
		<path d="M1866,25c2.5,0,5,0.4,6.9,1.1c1.2,0.4,2.1,0.9,2.6,1.5c0.3,0.3,0.5,0.7,0.5,1c0,1.5-3.8,3.5-10,3.5s-10-2-10-3.5
			c0-1.3,2.8-2.9,7.4-3.4C1864.2,25,1865.1,25,1866,25 M1866,24c-0.9,0-1.8,0-2.7,0.1c-4.8,0.5-8.3,2.3-8.3,4.4
			c0,2.5,4.9,4.5,11,4.5s11-2,11-4.5c0-0.6-0.3-1.1-0.8-1.7c-0.7-0.7-1.7-1.3-3-1.7C1871.3,24.4,1868.8,24,1866,24L1866,24z"/>
	</g>
	<g>
		<path class="st3" d="M1804,32.5c-6.3,0-10.5-2.1-10.5-4s4.2-4,10.5-4c1.5,0,2.9,0.1,4.2,0.3c3.7,0.6,6.3,2.1,6.3,3.7
			C1814.5,30.4,1810.3,32.5,1804,32.5z"/>
		<path d="M1804,25c1.4,0,2.8,0.1,4.1,0.3c3.8,0.7,5.9,2.1,5.9,3.2c0,1.5-3.8,3.5-10,3.5s-10-2-10-3.5S1797.8,25,1804,25 M1804,24
			c-6.1,0-11,2-11,4.5s4.9,4.5,11,4.5s11-2,11-4.5c0-1.9-2.8-3.5-6.7-4.1C1807,24.1,1805.5,24,1804,24L1804,24z"/>
	</g>
</g>
<g>
	<ellipse class="st3" cx="109.5" cy="265.5" rx="20" ry="12"/>
	<path d="M109.5,254c10.8,0,19.5,5.2,19.5,11.5s-8.7,11.5-19.5,11.5S90,271.8,90,265.5S98.7,254,109.5,254 M109.5,253
		c-11.3,0-20.5,5.6-20.5,12.5s9.2,12.5,20.5,12.5s20.5-5.6,20.5-12.5S120.8,253,109.5,253L109.5,253z"/>
</g>
<g>
	<ellipse class="st3" cx="162.5" cy="265.5" rx="20" ry="12"/>
	<path d="M162.5,254c10.8,0,19.5,5.2,19.5,11.5s-8.7,11.5-19.5,11.5s-19.5-5.2-19.5-11.5S151.7,254,162.5,254 M162.5,253
		c-11.3,0-20.5,5.6-20.5,12.5s9.2,12.5,20.5,12.5s20.5-5.6,20.5-12.5S173.8,253,162.5,253L162.5,253z"/>
</g>
<g>
	<ellipse class="st3" cx="214" cy="265" rx="20.5" ry="11.5"/>
	<path d="M214,254c11,0,20,4.9,20,11s-9,11-20,11s-20-4.9-20-11S203,254,214,254 M214,253c-11.6,0-21,5.4-21,12s9.4,12,21,12
		s21-5.4,21-12S225.6,253,214,253L214,253z"/>
</g>
<g id="blackdials">
	<g>
		<ellipse cx="1898.5" cy="148.5" rx="21" ry="20"/>
		<path class="st3" d="M1898.5,128v1c11.3,0,20.5,8.7,20.5,19.5c0,5.2-2.1,10.1-6,13.8c-3.9,3.7-9,5.7-14.5,5.7
			c-11.3,0-20.5-8.7-20.5-19.5c0-5.2,2.1-10.1,6-13.8c3.9-3.7,9-5.7,14.5-5.7V128 M1898.5,128c-11.9,0-21.5,9.2-21.5,20.5
			s9.6,20.5,21.5,20.5c11.9,0,21.5-9.2,21.5-20.5S1910.4,128,1898.5,128L1898.5,128z"/>
	</g>
	<g>
		<path d="M1898.1,111.1c-9.5,0-17.8-6.2-20.2-15.1c-0.4-1.6-0.6-3.2-0.6-4.9c0-4.8,1.8-9.5,5.1-13.1c2.2-2.4,4.9-4.3,8-5.4
			c2.4-0.9,5-1.4,7.7-1.4c11.5,0,20.8,9,20.8,20S1909.6,111.1,1898.1,111.1z"/>
		<path class="st3" d="M1898.1,70.7v1c11.2,0,20.3,8.7,20.3,19.5c0,5.2-2.1,10.1-5.9,13.8c-3.8,3.7-8.9,5.7-14.4,5.7
			c-9.3,0-17.4-6-19.7-14.7c-0.4-1.5-0.6-3.2-0.6-4.8c0-4.7,1.8-9.2,5-12.8c2.1-2.3,4.8-4.2,7.8-5.3c2.4-0.9,4.9-1.4,7.5-1.4V70.7
			 M1898.1,70.7c-2.8,0-5.4,0.5-7.9,1.4c-3.2,1.2-6,3.1-8.2,5.6c-3.3,3.6-5.2,8.3-5.2,13.5c0,1.7,0.2,3.4,0.6,5
			c2.3,8.9,10.7,15.4,20.6,15.4c11.8,0,21.3-9.2,21.3-20.5S1909.9,70.7,1898.1,70.7L1898.1,70.7z"/>
	</g>
	<g>
		<path d="M1898.1,226.5c-11.5,0-20.8-9-20.8-20c0-2.7,0.5-5.3,1.6-7.8c3.3-7.4,10.8-12.2,19.2-12.2c11.5,0,20.8,9,20.8,20
			S1909.6,226.5,1898.1,226.5z"/>
		<path class="st3" d="M1898.1,187.1c11.2,0,20.3,8.7,20.3,19.5s-9.1,19.5-20.3,19.5c-11.2,0-20.3-8.7-20.3-19.5
			c0-2.6,0.5-5.2,1.6-7.6C1882.6,191.7,1889.9,187.1,1898.1,187.1 M1898.1,186.1c-8.8,0-16.4,5.2-19.6,12.5c-1.1,2.4-1.7,5.1-1.7,8
			c0,11.3,9.5,20.5,21.3,20.5s21.3-9.2,21.3-20.5S1909.9,186.1,1898.1,186.1L1898.1,186.1z"/>
	</g>
	<g>
		<rect x="1882.4" y="191.4" transform="matrix(0.7071 -0.7071 0.7071 0.7071 409.7473 1402.2175)" width="30.1" height="30.1"/>
		<path class="st3" d="M1897.5,185.9l20.6,20.6l-20.6,20.6l-20.6-20.6L1897.5,185.9 M1897.5,184.5l-22,22l22,22l22-22L1897.5,184.5
			L1897.5,184.5z"/>
	</g>
	<g>
		<rect x="1882.6" y="133.5" transform="matrix(0.7071 -0.7071 0.7071 0.7071 450.7469 1385.3418)" width="30.1" height="30.1"/>
		<path class="st3" d="M1897.6,128l20.6,20.6l-20.6,20.6l-20.6-20.6L1897.6,128 M1897.6,126.6l-22,22l22,22l22-22L1897.6,126.6
			L1897.6,126.6z"/>
	</g>
	<g>
		<rect x="1882.6" y="75.5" transform="matrix(0.7071 -0.7071 0.7071 0.7071 491.7591 1368.354)" width="30.1" height="30.1"/>
		<path class="st3" d="M1897.6,70l20.6,20.6l-20.6,20.6L1877,90.6L1897.6,70 M1897.6,68.6l-22,22l22,22l22-22L1897.6,68.6
			L1897.6,68.6z"/>
	</g>
</g>
</svg>